<svg id="eT1r6iQW7Us1" xmlns="http://www.w3.org/2000/svg" xmlns:xlink="http://www.w3.org/1999/xlink" viewBox="0 0 464.34 480" shape-rendering="geometricPrecision" text-rendering="geometricPrecision"><defs><linearGradient id="eT1r6iQW7Us6-fill" x1="224.49" y1="-41.21" x2="233.5" y2="247.11" spreadMethod="pad" gradientUnits="userSpaceOnUse" gradientTransform="translate(0 0)"><stop id="eT1r6iQW7Us6-fill-0" offset="0%" stop-color="rgba(255,255,255,0)"/><stop id="eT1r6iQW7Us6-fill-1" offset="84%" stop-color="rgba(255,255,255,0.84)"/><stop id="eT1r6iQW7Us6-fill-2" offset="97%" stop-color="#fff"/></linearGradient><linearGradient id="eT1r6iQW7Us16-fill" x1="3.85" y1="7" x2="-8.54" y2="-15.53" spreadMethod="pad" gradientUnits="userSpaceOnUse" gradientTransform="translate(0 0)"><stop id="eT1r6iQW7Us16-fill-0" offset="0%" stop-color="rgba(255,255,255,0)"/><stop id="eT1r6iQW7Us16-fill-1" offset="84%" stop-color="rgba(255,255,255,0.84)"/><stop id="eT1r6iQW7Us16-fill-2" offset="97%" stop-color="#fff"/></linearGradient><linearGradient id="eT1r6iQW7Us17-fill" x1="18.47" y1="35.07" x2="6.08" y2="12.54" spreadMethod="pad" gradientUnits="userSpaceOnUse" gradientTransform="translate(0 0)"><stop id="eT1r6iQW7Us17-fill-0" offset="0%" stop-color="rgba(255,255,255,0)"/><stop id="eT1r6iQW7Us17-fill-1" offset="84%" stop-color="rgba(255,255,255,0.84)"/><stop id="eT1r6iQW7Us17-fill-2" offset="97%" stop-color="#fff"/></linearGradient><linearGradient id="eT1r6iQW7Us18-fill" x1="-5.69" y1="-8.87" x2="-18.08" y2="-31.39" spreadMethod="pad" gradientUnits="userSpaceOnUse" gradientTransform="translate(0 0)"><stop id="eT1r6iQW7Us18-fill-0" offset="0%" stop-color="rgba(255,255,255,0)"/><stop id="eT1r6iQW7Us18-fill-1" offset="84%" stop-color="rgba(255,255,255,0.84)"/><stop id="eT1r6iQW7Us18-fill-2" offset="97%" stop-color="#fff"/></linearGradient><linearGradient id="eT1r6iQW7Us19-fill" x1="-9.091056" y1="40.340237" x2="-1.920991" y2="15.662202" spreadMethod="pad" gradientUnits="userSpaceOnUse" gradientTransform="translate(0 0)"><stop id="eT1r6iQW7Us19-fill-0" offset="0%" stop-color="rgba(255,255,255,0)"/><stop id="eT1r6iQW7Us19-fill-1" offset="84%" stop-color="rgba(255,255,255,0.84)"/><stop id="eT1r6iQW7Us19-fill-2" offset="97%" stop-color="#fff"/></linearGradient><linearGradient id="eT1r6iQW7Us20-fill" x1="6.231952" y1="-12.41206" x2="13.394946" y2="-37.097166" spreadMethod="pad" gradientUnits="userSpaceOnUse" gradientTransform="translate(0 0)"><stop id="eT1r6iQW7Us20-fill-0" offset="0%" stop-color="rgba(255,255,255,0)"/><stop id="eT1r6iQW7Us20-fill-1" offset="84%" stop-color="rgba(255,255,255,0.84)"/><stop id="eT1r6iQW7Us20-fill-2" offset="97%" stop-color="#fff"/></linearGradient><linearGradient id="eT1r6iQW7Us21-fill" x1="-19.66" y1="15.69" x2="2.87" y2="3.3" spreadMethod="pad" gradientUnits="userSpaceOnUse" gradientTransform="translate(0 0)"><stop id="eT1r6iQW7Us21-fill-0" offset="0%" stop-color="rgba(255,255,255,0)"/><stop id="eT1r6iQW7Us21-fill-1" offset="84%" stop-color="rgba(255,255,255,0.84)"/><stop id="eT1r6iQW7Us21-fill-2" offset="97%" stop-color="#fff"/></linearGradient><linearGradient id="eT1r6iQW7Us22-fill" x1="4.5" y1="2.4" x2="27.03" y2="-9.99" spreadMethod="pad" gradientUnits="userSpaceOnUse" gradientTransform="translate(0 0)"><stop id="eT1r6iQW7Us22-fill-0" offset="0%" stop-color="rgba(255,255,255,0)"/><stop id="eT1r6iQW7Us22-fill-1" offset="84%" stop-color="rgba(255,255,255,0.84)"/><stop id="eT1r6iQW7Us22-fill-2" offset="97%" stop-color="#fff"/></linearGradient><linearGradient id="eT1r6iQW7Us23-fill" x1="18.972664" y1="9.173854" x2="-5.719513" y2="2.003789" spreadMethod="pad" gradientUnits="userSpaceOnUse" gradientTransform="translate(0 0)"><stop id="eT1r6iQW7Us23-fill-0" offset="0%" stop-color="rgba(255,255,255,0)"/><stop id="eT1r6iQW7Us23-fill-1" offset="84%" stop-color="rgba(255,255,255,0.84)"/><stop id="eT1r6iQW7Us23-fill-2" offset="97%" stop-color="#fff"/></linearGradient><linearGradient id="eT1r6iQW7Us24-fill" x1="3.659655" y1="4.74525" x2="-21.032521" y2="-2.424815" spreadMethod="pad" gradientUnits="userSpaceOnUse" gradientTransform="translate(0 0)"><stop id="eT1r6iQW7Us24-fill-0" offset="0%" stop-color="rgba(255,255,255,0)"/><stop id="eT1r6iQW7Us24-fill-1" offset="84%" stop-color="rgba(255,255,255,0.84)"/><stop id="eT1r6iQW7Us24-fill-2" offset="97%" stop-color="#fff"/></linearGradient><linearGradient id="eT1r6iQW7Us25-fill" x1="89.92" y1="92.57" x2="89.92" y2="164.37" spreadMethod="pad" gradientUnits="userSpaceOnUse" gradientTransform="translate(0 0)"><stop id="eT1r6iQW7Us25-fill-0" offset="0%" stop-color="rgba(255,255,255,0)"/><stop id="eT1r6iQW7Us25-fill-1" offset="84%" stop-color="rgba(255,255,255,0.84)"/><stop id="eT1r6iQW7Us25-fill-2" offset="97%" stop-color="#fff"/></linearGradient><linearGradient id="eT1r6iQW7Us26-fill" x1="196.25" y1="92.57" x2="196.25" y2="164.37" spreadMethod="pad" gradientUnits="userSpaceOnUse" gradientTransform="translate(0 0)"><stop id="eT1r6iQW7Us26-fill-0" offset="0%" stop-color="rgba(255,255,255,0)"/><stop id="eT1r6iQW7Us26-fill-1" offset="84%" stop-color="rgba(255,255,255,0.84)"/><stop id="eT1r6iQW7Us26-fill-2" offset="97%" stop-color="#fff"/></linearGradient><linearGradient id="eT1r6iQW7Us27-fill" x1="302.58" y1="92.57" x2="302.58" y2="164.37" spreadMethod="pad" gradientUnits="userSpaceOnUse" gradientTransform="translate(0 0)"><stop id="eT1r6iQW7Us27-fill-0" offset="0%" stop-color="rgba(255,255,255,0)"/><stop id="eT1r6iQW7Us27-fill-1" offset="84%" stop-color="rgba(255,255,255,0.84)"/><stop id="eT1r6iQW7Us27-fill-2" offset="97%" stop-color="#fff"/></linearGradient><linearGradient id="eT1r6iQW7Us28-fill" x1="408.9" y1="92.57" x2="408.9" y2="164.37" spreadMethod="pad" gradientUnits="userSpaceOnUse" gradientTransform="translate(0 0)"><stop id="eT1r6iQW7Us28-fill-0" offset="0%" stop-color="rgba(255,255,255,0)"/><stop id="eT1r6iQW7Us28-fill-1" offset="84%" stop-color="rgba(255,255,255,0.84)"/><stop id="eT1r6iQW7Us28-fill-2" offset="97%" stop-color="#fff"/></linearGradient></defs><path style="isolation:isolate" d="M69,94c0,0,36.29-54.78,138.3-36.41s179.25,176.41,179.25,176.41s37.07565,11.1742,56.24,45s37.754039,159.152278,25.183424,185.453677-93.952809,17.679697-174.935279,4.375508-175.265383-35.909307-145.421407-151.606027c0,0,6.803262-49.873158-86.356738-45.353158s7.74-177.87,7.74-177.87Z" transform="translate(-15.196738-51.823158)" opacity="0.19" fill="#06b6d4"/><path style="isolation:isolate" d="M284.54,82.93c0,0-63.24-27.25-100.32,18.93s17.39,170.42,31.27,185.45s29.63,36.42,62.3,31.91s64.57,3.44,59.31,41.7s63.860001,75.82537,63.860001,75.82537s26.920696,21.484259,54.964609-20.290138-74.64461-111.335232-76.83461-216.895232-94.55-116.63-94.55-116.63Z" transform="translate(-21.76-53.82)" opacity="0.36" fill="#06b6d4"/><rect style="isolation:isolate" width="457.07" height="177.05" rx="16.6" ry="16.6" transform="translate(7.26 46.15)" opacity="0.36" fill="#06b6d4"/><rect width="457.07" height="177.05" rx="16.6" ry="16.6" transform="translate(2.26 40.15)" fill="#06b6d4"/><rect width="457.07" height="177.05" rx="16.6" ry="16.6" transform="translate(2.26 40.15)" fill="url(#eT1r6iQW7Us6-fill)"/><circle r="16.43" transform="translate(64.76 138.12)" fill="#fff"/><rect width="2.67" height="7.61" rx="1.33" ry="1.33" transform="translate(64.76 107.7)" fill="#fff"/><rect width="2.67" height="7.61" rx="1.33" ry="1.33" transform="translate(64.76 160.92)" fill="#fff"/><rect width="2.67" height="7.61" rx="1.33" ry="1.33" transform="matrix(.707107-.707107 0.707107 0.707107 43.641378 117.55912)" fill="#fff"/><rect width="2.67" height="7.61" rx="1.33" ry="1.33" transform="matrix(.707107-.707107 0.707107 0.707107 81.275306 155.182049)" fill="#fff"/><rect width="2.67" height="7.61" rx="1.33" ry="1.33" transform="matrix(0-1 1 0 35.68 139.45)" fill="#fff"/><rect width="2.67" height="7.61" rx="1.33" ry="1.33" transform="matrix(0-1 1 0 88.9 139.45)" fill="#fff"/><rect width="2.67" height="7.61" rx="1.33" ry="1.33" transform="matrix(.707107 0.707107-.707107 0.707107 86.656379 115.666877)" fill="#fff"/><rect width="2.67" height="7.61" rx="1.33" ry="1.33" transform="matrix(.707107 0.707107-.707107 0.707107 49.022452 153.289806)" fill="#fff"/><circle r="17.66" transform="translate(159.59 140.4)" fill="url(#eT1r6iQW7Us16-fill)"/><rect width="2.87" height="8.18" rx="1.43" ry="1.43" transform="translate(159.59 107.7)" fill="url(#eT1r6iQW7Us17-fill)"/><rect width="2.87" height="8.18" rx="1.43" ry="1.43" transform="translate(159.59 164.92)" fill="url(#eT1r6iQW7Us18-fill)"/><rect width="2.87" height="8.18" rx="1.43" ry="1.43" transform="matrix(.707107-.707107 0.707107 0.707107 136.886487 118.298398)" fill="url(#eT1r6iQW7Us19-fill)"/><rect width="2.87" height="8.18" rx="1.43" ry="1.43" transform="matrix(.707107-.707107 0.707107 0.707107 177.338496 158.751326)" fill="url(#eT1r6iQW7Us20-fill)"/><rect width="2.87" height="8.18" rx="1.43" ry="1.43" transform="matrix(0-1 1 0 128.33 141.83)" fill="url(#eT1r6iQW7Us21-fill)"/><rect width="2.87" height="8.18" rx="1.43" ry="1.43" transform="matrix(0-1 1 0 185.55 141.83)" fill="url(#eT1r6iQW7Us22-fill)"/><rect width="2.87" height="8.18" rx="1.43" ry="1.43" transform="matrix(.707107 0.707107-.707107 0.707107 183.131143 116.266027)" fill="url(#eT1r6iQW7Us23-fill)"/><rect width="2.87" height="8.18" rx="1.43" ry="1.43" transform="matrix(.707107 0.707107-.707107 0.707107 142.679133 156.718956)" fill="url(#eT1r6iQW7Us24-fill)"/><path d="M119.83,147.17h-59.83c-4.108999,0-7.44-3.331001-7.44-7.44v-3.44c0-4.11,3.33-7.44,5.81-7.44h59.81c5.74,0,9.07,3.33,9.07,7.44v3.44c.000015,4.101201-3.318814,7.428975-7.42,7.44Z" transform="translate(-21.76-53.82)" fill="url(#eT1r6iQW7Us25-fill)"/><path d="M226.15,147.17h-59.81c-4.108999,0-7.44-3.331001-7.44-7.44v-3.44c0-4.11,3.33-7.44,5.81-7.44h59.81c5.74,0,9.07,3.33,9.07,7.44v3.44c0,4.108999-3.331001,7.44-7.44,7.44Z" transform="translate(-21.76-53.82)" fill="url(#eT1r6iQW7Us26-fill)"/><path d="M332.48,147.17h-59.81c-4.108999,0-7.44-3.331001-7.44-7.44v-3.44c0-4.11,3.33-7.44,5.81-7.44h59.81c5.74,0,9.07,3.33,9.07,7.44v3.44c0,4.108999-3.331001,7.44-7.44,7.44Z" transform="translate(-21.76-53.82)" fill="url(#eT1r6iQW7Us27-fill)"/><path d="M438.81,147.17h-59.81c-4.108999,0-7.44-3.331001-7.44-7.44v-3.44c0-4.11,3.33-7.44,5.8-7.44h59.82c5.74,0,9.07,3.33,9.07,7.44v3.44c0,4.108999-3.331001,7.44-7.44,7.44Z" transform="translate(-21.76-53.82)" fill="url(#eT1r6iQW7Us28-fill)"/><path d="M233.59,209c.005325,2.505272-.987534,4.909468-2.759033,6.680967s-4.175695,2.764358-6.680967,2.759033h-55.81c-3.444051.112139-6.675581-1.661233-8.430795-4.626581s-1.755214-6.651489,0-9.616838s4.986744-4.73872,8.430795-4.626581h12.53c-.060181-.424007-.090256-.851744-.09-1.28-.005317-2.503537.986171-4.906211,2.755504-6.67742s4.170955-2.765243,6.674496-2.76258v0-1.72c0-2.47447.982979-4.847592,2.732694-6.597306s4.122836-2.732694,6.597306-2.732694h5.75c2.130423-.000042,4.172869.849673,5.674606,2.360796s2.338709,3.558822,2.325394,5.689204v3h2.1c2.73128.002935,5.327708,1.187451,7.120154,3.248285s2.605579,4.796401,2.229846,7.501715c4.970977.301344,8.848552,4.419898,8.85,9.4Z" transform="translate(-21.76-53.82)" fill="#fff"/><path d="M337.1,209c.005325,2.505272-.987534,4.909468-2.759033,6.680967s-4.175695,2.764358-6.680967,2.759033h-55.81c-3.444051.112139-6.675581-1.661233-8.430795-4.626581s-1.755214-6.651489,0-9.616838s4.986744-4.73872,8.430795-4.626581h12.53c-.060181-.424007-.090256-.851744-.09-1.28-.005317-2.503537.986171-4.906211,2.755504-6.67742s4.170955-2.765243,6.674496-2.76258h1.69v-4.23c0-5.765853,4.674147-10.44,10.44-10.44s10.44,4.674147,10.44,10.44v4.23h2.71c2.737411-.01769,5.345956,1.16133,7.141368,3.227784s2.598511,4.814112,2.198632,7.522216c4.935453.346648,8.761654,4.452389,8.76,9.4Z" transform="translate(-21.76-53.82)" fill="#fff"/><path d="M444.34,209c.005325,2.505272-.987534,4.909468-2.759033,6.680967s-4.175695,2.764358-6.680967,2.759033h-55.81c-3.444051.112139-6.675581-1.661233-8.430795-4.626581s-1.755214-6.651489,0-9.616838s4.986744-4.73872,8.430795-4.626581h12.52c-.060181-.424007-.090256-.851744-.09-1.28-.005325-2.505272.987534-4.909468,2.759033-6.680967s4.175695-2.764358,6.680967-2.759033h1.68v-4.23c0-5.765853,4.674147-10.44,10.44-10.44s10.44,4.674147,10.44,10.44v4.23h2.68c5.213568,0,9.44,4.226432,9.44,9.44.001888.438643-.031554.876726-.1,1.31c4.951247.326586,8.800224,4.437994,8.8,9.4Z" transform="translate(-21.76-53.82)" fill="#fff"/><rect width="2.8" height="6.72" rx="1.4" ry="1.4" transform="matrix(.866025 0.5-.5 0.866025 369.44325 167.698501)" fill="#fff"/><rect width="2.8" height="6.72" rx="1.4" ry="1.4" transform="matrix(.866025 0.5-.5 0.866025 379.602067 167.708503)" fill="#fff"/><rect width="2.8" height="6.72" rx="1.4" ry="1.4" transform="matrix(.866025 0.5-.5 0.866025 389.752224 167.703505)" fill="#fff"/><rect width="2.8" height="6.72" rx="1.4" ry="1.4" transform="matrix(.866025 0.5-.5 0.866025 399.911041 167.703507)" fill="#fff"/><rect width="2.8" height="6.72" rx="1.4" ry="1.4" transform="matrix(.866025 0.5-.5 0.866025 365.488787 178.951285)" fill="#fff"/><rect width="2.8" height="6.72" rx="1.4" ry="1.4" transform="matrix(.866025 0.5-.5 0.866025 375.647605 178.951287)" fill="#fff"/><rect width="2.8" height="6.72" rx="1.4" ry="1.4" transform="matrix(.866025 0.5-.5 0.866025 385.797761 178.946289)" fill="#fff"/><rect width="2.8" height="6.72" rx="1.4" ry="1.4" transform="matrix(.866025 0.5-.5 0.866025 395.956578 178.956291)" fill="#fff"/></svg>
